<svg width="76.608" height="68.618" viewBox="0 0 20.269 18.155" xmlns="http://www.w3.org/2000/svg"><defs><clipPath clipPathUnits="userSpaceOnUse" id="prefix__a"><path class="prefix__powerclip" d="M-131.53 66.324h20v26.18h-20zm15 13.09a5 5 0 00-5-5 5 5 0 00-5 5 5 5 0 005 5 5 5 0 005-5z" fill="#fff" stroke-width=".257"/></clipPath></defs><g fill="#ffa400"><path transform="rotate(-90 -66.447 -17.685) scale(.74164)" clip-path="url(#prefix__a)" d="M-116.53 79.414a5 8.09 0 01-5 8.09 5 8.09 0 01-5-8.09 5 8.09 0 015-8.09 5 8.09 0 015 8.09z"/><path d="M8.656 0h2.979s-1.285 2.287-1.286 5.995C10.347 9.703 11.627 12 11.627 12H8.635S9.92 9.707 9.92 5.998C9.92 2.29 8.656 0 8.656 0z"/></g><path d="M4.53 13.659q0 .157.076.28.08.118.195.207.114.084.313.211.216.136.339.233.127.098.215.242.09.14.09.33 0 .216-.115.385-.11.17-.317.267-.204.093-.466.093-.178 0-.368-.047-.187-.046-.284-.114-.038-.026-.042-.08l-.026-.64v-.004q0-.017.021-.017.022-.004.026.013.14.347.317.572.182.224.457.224.187 0 .31-.098.122-.101.122-.334 0-.186-.084-.326-.08-.14-.204-.233-.118-.093-.326-.228-.203-.132-.317-.22-.114-.094-.195-.225-.08-.135-.08-.313 0-.22.123-.373.122-.152.317-.224.199-.076.415-.076.14 0 .284.03.143.025.245.067.064.025.064.08l.008.572q0 .017-.021.021-.017.004-.025-.008-.085-.258-.23-.466-.139-.211-.422-.211-.19 0-.305.114-.11.11-.11.296zm2.264 1.054H7.98l.03.106H6.74zm2.198 1.092q.017 0 .017.026 0 .025-.017.025-.08 0-.259-.008-.177-.008-.258-.008-.106 0-.25.008-.144.008-.224.008-.017 0-.017-.025 0-.026.017-.026.127 0 .182-.025.055-.03.055-.093 0-.064-.072-.216l-.885-1.8.174-.283-.838 1.888q-.055.127-.055.229 0 .148.105.224.106.076.297.076.021 0 .021.026 0 .025-.021.025-.076 0-.22-.008-.161-.008-.28-.008-.114 0-.266.008-.136.008-.225.008-.02 0-.02-.025 0-.026.02-.026.119 0 .2-.046.08-.047.156-.165.076-.123.182-.36l.91-2.05q.009-.012.038-.012.03 0 .034.013l1.037 2.091q.144.305.241.42.102.11.22.11zm.859-.309q0 .11.021.165.021.051.076.068.055.017.178.017h.254q.3 0 .508-.165.208-.17.275-.453 0-.008.017-.008.009 0 .017.008.013.004.013.008-.038.39-.038.656 0 .034-.013.05-.013.013-.05.013H9.126q-.008 0-.008-.025t.008-.025q.144 0 .207-.022.068-.02.09-.08.025-.063.025-.19v-1.96q0-.127-.026-.187-.02-.06-.089-.08-.067-.026-.207-.026-.008 0-.008-.025t.008-.025l.216.004q.186.008.305.008.127 0 .313-.008l.212-.004q.012 0 .012.025t-.012.025q-.14 0-.208.026-.067.021-.093.085-.021.059-.021.186zm3.848-1.77q0-.22-.102-.342-.097-.123-.283-.123-.009 0-.009-.025 0-.026.009-.026l.195.004q.16.008.254.008.076 0 .228-.008l.186-.004q.009 0 .009.026 0 .025-.009.025-.165 0-.258.123-.089.122-.089.343v1.185q0 .305-.13.533-.128.225-.365.347-.233.123-.542.123-.309 0-.55-.118-.242-.123-.377-.347-.131-.229-.131-.534v-1.363q0-.127-.026-.186-.025-.06-.093-.08-.063-.026-.203-.026-.013 0-.013-.025 0-.026.013-.026l.22.004q.186.008.3.008.128 0 .314-.008l.212-.004q.012 0 .012.026 0 .025-.012.025-.14 0-.208.025-.067.026-.093.09-.021.059-.021.186v1.206q0 .504.207.754.212.245.589.245.36 0 .563-.22.203-.224.203-.63zm1.202-.067q0 .157.077.28.08.118.194.207.115.084.314.211.215.136.338.233.127.098.216.242.089.14.089.33 0 .216-.114.385-.11.17-.318.267-.203.093-.465.093-.178 0-.369-.047-.186-.046-.283-.114-.039-.026-.043-.08l-.025-.64v-.004q0-.017.021-.017.021-.004.025.013.14.347.318.572.182.224.457.224.186 0 .31-.098.122-.101.122-.334 0-.186-.085-.326-.08-.14-.203-.233-.118-.093-.326-.228-.203-.132-.317-.22-.115-.094-.195-.225-.08-.135-.08-.313 0-.22.122-.373.123-.152.318-.224.199-.076.415-.076.14 0 .283.03.144.025.246.067.063.025.063.08l.009.572q0 .017-.021.021-.017.004-.026-.008-.085-.258-.228-.465-.14-.212-.424-.212-.19 0-.305.114-.11.11-.11.296z" style="-inkscape-font-specification:'Cormorant Garamond Semi-Bold'" aria-label="SALUS" font-weight="600" font-size="4.233" font-family="Cormorant Garamond"/><path d="M.421 17.554h.593l.015.053H.394zm1.099.546q.008 0 .008.013t-.008.013q-.04 0-.13-.004-.088-.004-.128-.004-.053 0-.125.004-.072.004-.113.004-.008 0-.008-.013t.008-.013q.064 0 .091-.013.028-.014.028-.046t-.036-.108l-.442-.9.086-.141-.419.944q-.027.063-.027.114 0 .074.053.112.053.038.148.038.01 0 .01.013t-.01.013q-.038 0-.11-.004-.08-.004-.14-.004-.057 0-.133.004-.068.004-.112.004-.011 0-.011-.013t.01-.013q.06 0 .1-.023.04-.023.078-.083.038-.061.091-.18l.455-1.024q.005-.006.02-.006.014 0 .016.006l.519 1.046q.072.152.12.21.051.054.11.054zm.44-.154q0 .067.015.1.017.029.061.041.047.013.144.013.006 0 .006.013t-.006.013q-.087 0-.135-.002l-.184-.002-.153.002q-.04.002-.11.002-.006 0-.006-.013t.006-.013q.072 0 .104-.01.034-.011.044-.04.013-.032.013-.096v-.98q0-.063-.013-.093-.01-.03-.044-.04-.034-.013-.104-.013-.006 0-.006-.013 0-.012.006-.012l.11.002q.093.004.15.004.05 0 .119-.006l.068-.004q.044-.002.103-.002.208 0 .33.089.123.089.123.273 0 .133-.07.226-.067.093-.175.14-.106.046-.218.046-.06 0-.102-.01-.004 0-.004-.01 0-.007.002-.013.004-.006.009-.004.031.008.074.008.11 0 .186-.091t.076-.26q0-.168-.078-.259-.076-.093-.216-.093-.05 0-.078.01-.026.011-.036.04-.01.028-.01.09zm1.162 0q0 .067.015.1.017.029.061.041.047.013.144.013.007 0 .007.013t-.007.013q-.087 0-.135-.002l-.184-.002-.153.002q-.04.002-.11.002-.006 0-.006-.013t.006-.013q.072 0 .104-.01.034-.011.044-.04.013-.032.013-.096v-.98q0-.063-.013-.093-.01-.03-.044-.04-.034-.013-.104-.013-.006 0-.006-.013 0-.012.006-.012l.11.002q.093.004.15.004.05 0 .119-.006l.068-.004q.044-.002.103-.002.208 0 .33.089.123.089.123.273 0 .133-.07.226-.067.093-.175.14-.106.046-.218.046-.06 0-.102-.01-.004 0-.004-.01 0-.007.002-.013.004-.006.009-.004.031.008.074.008.11 0 .186-.091t.076-.26q0-.168-.078-.259-.076-.093-.216-.093-.05 0-.078.01-.026.011-.036.04-.01.028-.01.09zm1.657 0q0 .067.015.1.017.029.062.041.046.013.144.013.006 0 .006.013T5 18.126q-.087 0-.136-.002l-.184-.002-.152.002q-.04.002-.11.002-.007 0-.007-.013t.006-.013q.072 0 .104-.01.034-.011.045-.04.012-.032.012-.096v-.98q0-.063-.012-.093-.01-.03-.045-.04-.034-.013-.104-.013-.006 0-.006-.013 0-.012.006-.012l.11.002q.094.004.15.004.05 0 .12-.006l.067-.004q.045-.002.104-.002.207 0 .33.089.123.089.123.273 0 .133-.07.226-.068.093-.176.14-.106.046-.218.046-.06 0-.101-.01-.005 0-.005-.01 0-.007.003-.013.004-.006.008-.004.032.008.074.008.11 0 .186-.091.077-.091.077-.26 0-.168-.079-.259-.076-.093-.216-.093-.05 0-.078.01-.025.011-.036.04-.01.028-.01.09zm1.014-.392h.593l.015.053h-.635zm1.099.546q.008 0 .008.013t-.008.013q-.04 0-.13-.004-.088-.004-.128-.004-.053 0-.125.004-.072.004-.112.004-.009 0-.009-.013t.009-.013q.063 0 .09-.013.028-.014.028-.046t-.036-.108l-.442-.9.087-.141-.42.944q-.027.063-.027.114 0 .074.053.112.053.038.148.038.01 0 .01.013t-.01.013q-.038 0-.11-.004-.08-.004-.14-.004-.057 0-.133.004-.068.004-.112.004-.01 0-.01-.013t.01-.013q.059 0 .1-.023.04-.023.077-.083.039-.061.091-.18l.456-1.024q.004-.006.019-.006.014 0 .017.006l.518 1.046q.072.152.12.21.052.054.11.054zm1.139.026q-.051 0-.189-.178-.135-.178-.33-.496l.17-.05q.177.264.296.415.12.148.213.215.094.068.18.068.005 0 .005.013t-.005.013zm-.48-1.33q.181 0 .283.074.101.072.101.2 0 .118-.067.213-.068.095-.18.15-.11.053-.233.053-.045 0-.108-.004v.472q0 .066.01.096.011.03.043.04.034.01.108.01.004 0 .004.013t-.004.013q-.07 0-.11-.002l-.155-.002-.152.002q-.04.002-.11.002-.007 0-.007-.013t.007-.013q.072 0 .103-.01.034-.01.047-.04.013-.032.013-.096v-.98q0-.063-.013-.093-.01-.03-.044-.04-.034-.013-.104-.013-.004 0-.004-.012 0-.013.004-.013l.11.002q.093.004.15.004.07 0 .153-.006l.065-.004q.04-.002.09-.002zm.175.347q0-.171-.06-.239-.057-.067-.167-.067-.084 0-.118.031-.034.03-.034.11v.447q.05.008.123.008.137 0 .197-.068.059-.07.059-.222zm1.03.411h.593l.015.053H8.73zm1.1.546q.008 0 .008.013t-.009.013q-.04 0-.129-.004t-.129-.004q-.053 0-.125.004-.072.004-.112.004-.009 0-.009-.013t.009-.013q.063 0 .09-.013.028-.014.028-.046t-.036-.108l-.442-.9.087-.141-.42.944q-.027.063-.027.114 0 .074.053.112.053.038.148.038.01 0 .01.013t-.01.013q-.038 0-.11-.004-.08-.004-.14-.004-.057 0-.133.004-.068.004-.112.004-.01 0-.01-.013t.01-.013q.06 0 .1-.023.04-.023.078-.083.038-.061.09-.18l.456-1.024q.004-.006.019-.006t.017.006l.518 1.046q.072.152.121.21.05.054.11.054zm.939-1.253q-.13 0-.212.08-.082.079-.127.238 0 .006-.012.006-.011-.002-.011-.006.009-.083.02-.212.01-.131.01-.197 0-.01.01-.01.013 0 .013.01 0 .047.118.047.183.006.426.006.125 0 .265-.004l.143-.002q.08 0 .117-.01.038-.012.049-.043.002-.008.012-.008t.01.008q-.006.065-.012.199-.006.133-.006.216 0 .004-.013.004-.01 0-.013-.004-.02-.163-.099-.24-.078-.078-.212-.078-.059 0-.089.01-.027.011-.038.039-.01.025-.01.082v.976q0 .064.012.095.015.03.053.04.038.011.121.011.006 0 .006.013t-.006.013q-.074 0-.116-.002l-.174-.002-.165.002q-.045.002-.123.002-.004 0-.004-.013t.004-.013q.083 0 .12-.01.041-.011.054-.04.015-.032.015-.096v-.98q0-.055-.011-.08-.01-.028-.038-.036-.028-.01-.087-.01zm2.119.214q0-.11-.051-.172-.049-.061-.142-.061-.004 0-.004-.013 0-.012.004-.012l.098.002q.08.004.127.004.038 0 .114-.004l.093-.002q.004 0 .004.012 0 .013-.004.013-.083 0-.13.061-.044.062-.044.172v.593q0 .152-.065.266-.064.112-.182.174-.117.061-.271.061-.155 0-.275-.06-.121-.06-.189-.173-.065-.114-.065-.266v-.682q0-.063-.013-.093t-.047-.04q-.031-.013-.101-.013-.007 0-.007-.013 0-.012.007-.012l.11.002q.093.004.15.004.064 0 .157-.004l.106-.002q.006 0 .006.012 0 .013-.006.013-.07 0-.104.013-.034.012-.047.044-.01.03-.01.093v.604q0 .251.103.376.106.123.295.123.18 0 .281-.11.102-.112.102-.315zm1.117-.034q0 .078.038.14.04.059.098.103.057.043.156.106.108.068.17.117.063.048.108.12.044.07.044.165 0 .108-.057.193-.055.085-.159.133-.101.047-.233.047-.088 0-.184-.023-.093-.024-.141-.057-.02-.013-.022-.04l-.012-.32v-.002q0-.008.01-.008.01-.002.013.006.07.173.159.285.09.113.228.113.093 0 .155-.049.061-.05.061-.167 0-.093-.042-.163-.04-.07-.102-.117-.059-.046-.163-.114-.101-.066-.158-.11-.058-.047-.098-.112-.04-.068-.04-.157 0-.11.061-.186.062-.076.159-.112.1-.038.207-.038.07 0 .142.014.072.013.123.034.032.013.032.04l.004.286q0 .008-.01.01-.01.003-.013-.003-.043-.13-.115-.233-.07-.106-.211-.106-.095 0-.153.057-.055.055-.055.149zm1.133.527h.592l.015.053h-.635zm1.098.546q.009 0 .009.013t-.009.013q-.04 0-.129-.004t-.129-.004q-.053 0-.125.004-.072.004-.112.004-.008 0-.008-.013t.008-.013q.064 0 .091-.013.028-.014.028-.046t-.036-.108l-.443-.9.087-.142-.42.945q-.027.063-.027.114 0 .074.053.112.053.038.148.038.011 0 .011.013t-.01.013q-.039 0-.11-.004-.081-.004-.14-.004-.057 0-.134.004-.067.004-.112.004-.01 0-.01-.013t.01-.013q.06 0 .1-.023.04-.023.078-.083.038-.061.091-.18l.455-1.024q.004-.006.02-.006.014 0 .016.006l.519 1.046q.072.152.12.21.051.054.11.054zm.43-.154q0 .055.01.082.011.026.039.034.027.008.089.008h.127q.15 0 .254-.083.103-.084.137-.226 0-.004.009-.004.004 0 .008.004.007.002.007.004-.02.195-.02.328 0 .017-.006.025-.006.006-.025.006h-.99q-.005 0-.005-.012 0-.013.004-.013.072 0 .104-.01.034-.011.044-.04.013-.033.013-.096v-.98q0-.063-.013-.093-.01-.03-.044-.04-.034-.013-.104-.013-.004 0-.004-.013 0-.012.004-.012l.108.002q.093.004.153.004.063 0 .156-.004l.106-.002q.006 0 .006.012 0 .013-.006.013-.07 0-.104.013-.034.01-.046.042-.01.03-.01.093zm1.924-.885q0-.11-.05-.172-.05-.061-.143-.061-.004 0-.004-.013 0-.012.004-.012l.098.002q.08.004.127.004.038 0 .114-.004l.093-.002q.004 0 .004.012 0 .013-.004.013-.082 0-.129.061-.044.062-.044.172v.593q0 .152-.066.266-.063.112-.182.174-.116.061-.27.061-.155 0-.276-.06-.12-.06-.188-.173-.066-.114-.066-.266v-.682q0-.063-.013-.093-.012-.03-.046-.04-.032-.013-.102-.013-.006 0-.006-.013 0-.012.006-.012l.11.002q.093.004.15.004.064 0 .157-.004l.106-.002q.006 0 .006.012 0 .013-.006.013-.07 0-.104.013-.034.012-.046.044-.011.03-.011.093v.604q0 .251.104.376.106.123.294.123.18 0 .281-.11.102-.112.102-.315zm.948 1.073q-.065 0-.154-.006l-.08-.004q-.05-.002-.109-.002l-.15.002q-.04.002-.112.002-.004 0-.004-.013 0-.012.004-.012.072 0 .104-.011.034-.01.046-.04.013-.032.013-.095v-.98q0-.064-.013-.094-.01-.03-.044-.04-.034-.012-.104-.012-.004 0-.004-.013t.004-.013l.112.002q.093.004.148.004.083 0 .172-.006.106-.004.142-.004.216 0 .383.085t.258.23q.093.147.093.329 0 .205-.095.364-.095.156-.256.243-.161.085-.354.085zm-.02-.042q.145 0 .257-.07.115-.07.178-.206.064-.137.064-.328 0-.182-.062-.328-.059-.148-.169-.233-.11-.086-.256-.086-.091 0-.14.01-.046.01-.07.04-.023.028-.023.087v.953q0 .087.045.125.046.036.175.036z" style="-inkscape-font-specification:'Cormorant Garamond Semi-Bold'" aria-label="APP PARA TU SALUD" font-weight="600" font-size="2.117" font-family="Cormorant Garamond"/></svg>