<svg width="81.162" height="86.387" viewBox="0 0 21.474 22.856" xml:space="preserve" xmlns="http://www.w3.org/2000/svg"><defs><clipPath clipPathUnits="userSpaceOnUse" id="a"><path style="fill:#fff;stroke-width:.257235" class="powerclip" d="M-92.505 42.397h20v26.18h-20zm15 13.09a5 5 0 0 0-5-5 5 5 0 0 0-5 5 5 5 0 0 0 5 5 5 5 0 0 0 5-5z"/></clipPath></defs><path style="fill:#008bc7;fill-opacity:1;stroke-width:.327208" transform="rotate(-90 -59.572 -14.82)" clip-path="url(#a)" d="M-77.505 55.487a5 8.09 0 0 1-5 8.09 5 8.09 0 0 1-5-8.09 5 8.09 0 0 1 5-8.09 5 8.09 0 0 1 5 8.09z"/><path d="M37.671 210.87h4.822s-2.135 3.1-2.18 8.09c-.047 4.99 2.169 8.09 2.169 8.09h-4.846s2.215-3.1 2.192-8.086c-.022-4.987-2.157-8.095-2.157-8.095z" style="fill:#008bc7;fill-opacity:1;stroke-width:.12996" transform="translate(-29.328 -210.869)"/><path d="M63.816 42.837q0 .174.085.303.084.13.204.219.12.084.34.218.23.138.36.232.13.093.218.24.094.143.094.343 0 .214-.107.388-.107.173-.316.276-.205.098-.495.098-.343 0-.628-.156-.022-.013-.031-.031-.005-.018-.01-.054l-.057-.606q-.005-.017.018-.022.026-.004.03.014.068.316.264.552.196.232.517.232.222 0 .374-.12.156-.125.156-.393 0-.2-.09-.347-.089-.147-.218-.24-.124-.099-.343-.228-.214-.13-.338-.223-.12-.093-.205-.236-.085-.142-.085-.334 0-.223.116-.379.12-.16.307-.236.192-.08.406-.08.263 0 .52.107.068.022.068.076l.031.508q0 .022-.027.022-.022 0-.027-.018-.03-.232-.187-.428-.156-.2-.45-.2-.25 0-.374.147-.12.142-.12.356zm2.45.95h1.18l.032.088h-1.256zm2.205 1.26q.018 0 .018.027 0 .026-.018.026-.084 0-.262-.008-.179-.01-.259-.01-.098 0-.25.01-.142.008-.218.008-.017 0-.017-.026 0-.027.017-.027.17 0 .241-.031.076-.031.076-.112 0-.066-.054-.187l-.989-2.09.112-.137-.865 2.045q-.062.151-.062.25 0 .262.437.262.022 0 .022.027 0 .026-.022.026-.08 0-.232-.008-.17-.01-.294-.01-.116 0-.267.01-.134.008-.223.008-.022 0-.022-.026 0-.027.022-.027.125 0 .21-.045.088-.049.164-.164.08-.12.174-.343l.94-2.219q.009-.013.031-.013t.027.013l1.051 2.214q.152.33.258.446.107.111.254.111zm.838-.325q0 .129.027.187.026.058.098.08.071.018.231.018h.486q.254 0 .405-.156.152-.156.2-.432 0-.014.023-.009.027 0 .027.013-.04.37-.04.61 0 .036-.014.054-.013.013-.053.013H68.64q-.01 0-.01-.026 0-.027.01-.027.169 0 .245-.022.08-.023.107-.085.026-.067.026-.2v-2.063q0-.134-.026-.196-.027-.062-.107-.085-.076-.026-.245-.026-.01 0-.01-.027t.01-.027l.218.005q.187.008.303.008.125 0 .312-.008l.214-.005q.013 0 .013.027t-.013.027q-.165 0-.245.026-.08.023-.107.09-.027.062-.027.195zm4.099-1.916q0-.436-.388-.436-.013 0-.013-.027t.013-.027l.192.005q.16.008.254.008.075 0 .218-.008l.187-.005q.009 0 .009.027t-.01.027q-.355 0-.355.436v1.265q0 .513-.286.802-.285.285-.766.285-.33 0-.579-.129-.245-.129-.383-.365-.134-.24-.134-.561v-1.426q0-.134-.027-.196-.026-.062-.106-.085-.076-.026-.245-.026-.01 0-.01-.027t.01-.027l.218.005q.187.008.303.008.12 0 .316-.008l.205-.005q.013 0 .013.027t-.013.027q-.165 0-.245.026-.076.027-.103.094-.026.062-.026.196v1.26q0 .526.236.803.236.276.668.276.401 0 .624-.25.223-.254.223-.7zm1.176.031q0 .174.084.303.085.13.205.219.12.084.339.218.232.138.36.232.13.093.219.24.094.143.094.343 0 .214-.107.388-.107.173-.317.276-.205.098-.494.098-.343 0-.628-.156-.023-.013-.031-.031-.005-.018-.01-.054l-.057-.606q-.005-.017.018-.022.026-.004.03.014.068.316.264.552.196.232.516.232.223 0 .375-.12.155-.125.155-.393 0-.2-.089-.347-.089-.147-.218-.24-.125-.099-.343-.228-.214-.13-.339-.223-.12-.093-.204-.236-.085-.142-.085-.334 0-.223.116-.379.12-.16.307-.236.192-.08.406-.08.262 0 .52.107.068.022.068.076l.03.508q0 .022-.026.022-.022 0-.027-.018-.03-.232-.187-.428-.156-.2-.45-.2-.25 0-.374.147-.12.142-.12.356zm3.492.95h1.181l.031.088h-1.256Zm2.206 1.26q.018 0 .018.027 0 .026-.018.026-.085 0-.263-.008-.178-.01-.259-.01-.098 0-.249.01-.143.008-.218.008-.018 0-.018-.026 0-.027.018-.027.169 0 .24-.031.076-.031.076-.112 0-.066-.053-.187l-.99-2.09.112-.137-.864 2.045q-.063.151-.063.25 0 .262.437.262.022 0 .022.027 0 .026-.022.026-.08 0-.232-.008-.17-.01-.294-.01-.116 0-.267.01-.134.008-.223.008-.022 0-.022-.026 0-.027.022-.027.125 0 .21-.045.089-.049.164-.164.08-.12.174-.343l.94-2.219q.009-.013.031-.013.023 0 .027.013l1.051 2.214q.152.33.259.446.107.111.254.111zm.868-.325q0 .142.036.21.04.062.147.088.111.027.348.027.013 0 .013.027 0 .026-.013.026-.183 0-.286-.004l-.387-.005-.299.005q-.084.004-.227.004-.009 0-.009-.026 0-.027.01-.027.168 0 .244-.022.08-.023.107-.085.027-.067.027-.2v-2.063q0-.134-.027-.196t-.107-.085q-.076-.026-.245-.026-.009 0-.009-.027t.01-.027l.222.005q.187.008.298.008.112 0 .25-.013.053 0 .17-.004.115-.01.2-.01.41 0 .655.183.25.183.25.557 0 .294-.148.495-.143.2-.37.298-.227.098-.468.098-.129 0-.213-.022-.014 0-.014-.022 0-.014.005-.027.009-.013.018-.009.07.018.16.018.294 0 .494-.192.205-.191.205-.552 0-.352-.191-.553-.192-.204-.49-.204-.16 0-.232.017-.071.018-.102.085-.032.062-.032.214zm2.42 0q0 .142.035.21.04.062.147.088.112.027.348.027.013 0 .013.027 0 .026-.013.026-.183 0-.285-.004l-.388-.005-.299.005q-.084.004-.227.004-.009 0-.009-.026 0-.027.01-.027.169 0 .244-.022.08-.023.107-.085.027-.067.027-.2v-2.063q0-.134-.027-.196t-.107-.085q-.075-.026-.245-.026-.009 0-.009-.027t.01-.027l.222.005q.187.008.299.008.11 0 .249-.013.053 0 .17-.004.115-.01.2-.01.41 0 .655.183.25.183.25.557 0 .294-.148.495-.142.2-.37.298-.227.098-.467.098-.13 0-.214-.022-.014 0-.014-.022 0-.014.005-.027.009-.013.018-.009.071.018.16.018.294 0 .495-.192.205-.191.205-.552 0-.352-.192-.553-.192-.204-.49-.204-.16 0-.232.017-.071.018-.102.085-.031.062-.031.214z" style="font-size:4.45504px;font-family:&quot;Cormorant Garamond&quot;;-inkscape-font-specification:&quot;Cormorant Garamond&quot;;fill:#008bc7;stroke-width:.0934505;stroke-opacity:0;paint-order:markers fill stroke" aria-label="SALUS APP" transform="translate(-63.472 -24.683)"/><path d="M63.747 46.438q0 .082.04.144.04.061.097.103.057.04.16.104.11.066.172.11.061.044.104.114.044.068.044.163 0 .101-.05.184-.051.082-.15.131-.098.047-.235.047-.163 0-.299-.074-.01-.007-.014-.015l-.005-.026-.027-.287q-.002-.009.008-.01.013-.003.015.005.032.15.125.263.093.11.245.11.106 0 .178-.057.074-.06.074-.187 0-.095-.042-.164-.043-.07-.104-.115-.06-.046-.163-.107-.101-.062-.16-.106-.058-.045-.098-.112-.04-.068-.04-.159 0-.106.055-.18.057-.076.146-.112.09-.038.192-.038.125 0 .248.051.031.01.031.036l.015.241q0 .01-.012.01-.011 0-.013-.008-.015-.11-.089-.203-.074-.095-.213-.095-.119 0-.178.07-.057.067-.057.169zm.822 1.074q-.004 0-.004-.013 0-.012.004-.012.08 0 .117-.01.038-.011.05-.041.015-.032.015-.095v-.98q0-.063-.015-.092-.012-.03-.05-.04-.036-.013-.117-.013-.004 0-.004-.013 0-.012.004-.012h.85q.02 0 .02.019l.004.26q0 .006-.013.008-.01 0-.01-.006-.007-.112-.068-.174-.062-.063-.163-.063h-.13q-.073 0-.11.013-.035.01-.05.038-.013.027-.013.086v.96q0 .058.013.087.015.028.049.038.034.01.105.01h.17q.101 0 .169-.071.067-.072.09-.199 0-.004.01-.004.006 0 .01.004.006.002.006.004-.019.134-.019.28 0 .016-.008.025-.007.006-.026.006zm.768-.493q0-.093-.047-.133-.044-.04-.15-.04h-.317v-.044h.324q.101 0 .143-.034.045-.034.045-.114 0-.005.012-.005.013 0 .013.005l-.002.17q0 .062.002.094l.002.101q0 .005-.012.005-.013 0-.013-.005zm1.448.493q-.053 0-.203-.18-.148-.181-.357-.499l.118-.036q.184.265.307.413.125.146.22.211.095.066.186.066.006 0 .006.012 0 .013-.006.013zm-.533-1.328q.167 0 .258.076t.091.203q0 .112-.065.205-.066.091-.178.146-.11.053-.237.053l-.095-.006v.48q0 .065.013.095t.048.04q.039.01.119.01.006 0 .006.013t-.006.013q-.066 0-.104-.002l-.146-.002-.143.002q-.038.002-.108.002-.004 0-.004-.013 0-.012.004-.012.08 0 .118-.01.038-.013.053-.043t.015-.093v-.98q0-.063-.015-.092-.013-.03-.05-.04-.037-.013-.117-.013-.006 0-.006-.013 0-.012.006-.012l.104.002q.088.004.143.004.047 0 .087-.002l.068-.004q.08-.007.141-.007zm.206.34q0-.164-.074-.236-.072-.072-.212-.072-.082 0-.114.03t-.032.12v.444q.05.009.125.009.165 0 .235-.072.072-.072.072-.222zm1.845-.333q.007 0 .007.012 0 .013-.007.013-.071 0-.124.038-.053.038-.09.129l-.45 1.127q-.002.009-.023.009-.017 0-.023-.009l-.526-1.144q-.036-.082-.077-.116-.04-.034-.103-.034-.007 0-.007-.013 0-.012.007-.012l.08.002q.06.004.095.004.083 0 .18-.004l.089-.002q.006 0 .006.012 0 .013-.006.013-.131 0-.131.072 0 .027.019.07l.456 1-.065.097.431-1.085q.017-.04.017-.067 0-.045-.04-.066-.04-.021-.125-.021-.006 0-.006-.013 0-.012.006-.012l.091.002q.072.004.131.004.045 0 .1-.004zm.415 1.15q0 .065.013.095.012.03.048.04.038.01.119.01.006 0 .006.013t-.006.013q-.064 0-.102-.002l-.15-.002-.146.002q-.038.002-.103.002-.007 0-.007-.013 0-.012.007-.012.08 0 .116-.01.038-.011.05-.041.015-.032.015-.095v-.98q0-.063-.014-.092-.013-.03-.051-.04-.036-.013-.116-.013-.007 0-.007-.013 0-.012.007-.012l.103.002q.089.004.146.004.063 0 .152-.004l.1-.002q.006 0 .006.012 0 .013-.006.013-.079 0-.117.013-.038.012-.05.044-.013.03-.013.093zm1.15-1.174q.133 0 .224.02.091.018.182.065.015.008.017.015l.006.031.026.252q0 .006-.013.009-.01 0-.013-.007-.097-.353-.435-.353-.178 0-.315.078-.136.079-.21.225-.074.143-.074.336 0 .184.083.338.082.152.22.241.14.089.302.089.174 0 .281-.085.108-.084.165-.258 0-.004.01-.004.016 0 .016.006l-.021.233q-.003.025-.007.032-.004.006-.017.015-.11.052-.207.074-.095.02-.22.02-.222 0-.397-.086-.174-.089-.271-.247-.097-.159-.097-.364 0-.199.1-.351.099-.154.272-.239.175-.085.393-.085zm1.003 1.174q0 .065.012.095.013.03.049.04.038.01.118.01.007 0 .007.013t-.007.013q-.063 0-.101-.002l-.15-.002-.146.002q-.038.002-.104.002-.006 0-.006-.013 0-.012.006-.012.08 0 .116-.01.038-.011.051-.041.015-.032.015-.095v-.98q0-.063-.015-.092-.013-.03-.05-.04-.037-.013-.117-.013-.006 0-.006-.013 0-.012.006-.012l.104.002q.089.004.146.004.063 0 .152-.004l.1-.002q.006 0 .006.012 0 .013-.007.013-.078 0-.116.013-.038.012-.05.044-.014.03-.014.093zm1.055.197q-.197 0-.351-.091-.153-.093-.237-.25-.083-.159-.083-.345 0-.217.11-.372.11-.156.282-.234.173-.079.353-.079.2 0 .353.095.152.094.232.248.083.154.083.328 0 .192-.102.353-.101.16-.272.253-.17.094-.368.094zm.074-.045q.143 0 .258-.07.116-.07.181-.203.068-.135.068-.323 0-.199-.074-.353-.074-.155-.21-.241-.132-.087-.312-.087-.233 0-.364.15-.131.15-.131.412 0 .2.074.364.074.163.207.258.133.093.303.093zm1.698-.605h.56l.015.043h-.597zm1.046.599q.009 0 .009.012 0 .013-.009.013-.04 0-.124-.004-.085-.004-.123-.004-.047 0-.119.004-.067.004-.103.004-.009 0-.009-.013 0-.012.009-.012.08 0 .114-.015.036-.015.036-.053 0-.032-.025-.089l-.47-.991.053-.066-.41.97q-.03.072-.03.119 0 .125.207.125.011 0 .011.012 0 .013-.01.013-.039 0-.11-.004-.08-.004-.14-.004-.055 0-.127.004-.063.004-.106.004-.01 0-.01-.013 0-.012.01-.012.06 0 .1-.021.042-.024.078-.079.038-.057.082-.162l.447-1.053q.004-.007.014-.007.011 0 .013.007l.5 1.05q.071.157.122.212.05.053.12.053zm.893-.155q0 .062.012.09.013.027.047.037.034.009.11.009h.23q.12 0 .193-.074.072-.074.095-.205 0-.007.01-.005.013 0 .013.007-.019.175-.019.29 0 .016-.006.025-.007.006-.026.006h-.977q-.004 0-.004-.013 0-.012.004-.012.08 0 .117-.01.038-.011.05-.041.013-.032.013-.095v-.98q0-.063-.012-.092-.013-.03-.051-.04-.036-.013-.117-.013-.004 0-.004-.013 0-.012.004-.012l.104.002q.089.004.144.004.06 0 .148-.004l.101-.002q.007 0 .007.012 0 .013-.007.013-.078 0-.116.013-.038.01-.05.042-.013.03-.013.093zm1.167-.444h.56l.015.043h-.596zm1.046.599q.009 0 .009.012 0 .013-.009.013-.04 0-.124-.004-.085-.004-.123-.004-.046 0-.118.004-.068.004-.104.004-.008 0-.008-.013 0-.012.008-.012.08 0 .114-.015.036-.015.036-.053 0-.032-.025-.089l-.47-.991.053-.066-.41.97q-.03.072-.03.119 0 .125.208.125.01 0 .01.012 0 .013-.01.013-.038 0-.11-.004-.08-.004-.14-.004-.055 0-.127.004-.063.004-.105.004-.011 0-.011-.013 0-.012.01-.012.06 0 .1-.021.042-.024.078-.079.038-.057.083-.162l.446-1.053q.004-.007.015-.007.01 0 .012.007l.5 1.05q.071.157.122.212.05.053.12.053zm.808-1.049q0 .082.04.144.04.061.098.103.057.04.16.104.11.066.172.11.061.044.103.114.045.068.045.163 0 .101-.051.184-.05.082-.15.131-.098.047-.235.047-.163 0-.298-.074-.01-.007-.015-.015l-.004-.026-.028-.287q-.002-.009.009-.01.013-.003.015.005.031.15.124.263.094.11.246.11.105 0 .177-.057.074-.06.074-.187 0-.095-.042-.164-.042-.07-.104-.115-.059-.046-.162-.107-.102-.062-.161-.106-.057-.045-.097-.112-.04-.068-.04-.159 0-.106.055-.18.057-.076.145-.112.091-.038.193-.038.125 0 .247.051.032.01.032.036l.015.241q0 .01-.013.01-.01 0-.013-.008-.014-.11-.088-.203-.074-.095-.214-.095-.118 0-.178.07-.057.067-.057.169zm1.163.45h.56l.015.043H79.8zm1.047.599q.008 0 .008.012 0 .013-.008.013-.04 0-.125-.004-.084-.004-.123-.004-.046 0-.118.004-.068.004-.104.004-.008 0-.008-.013 0-.012.008-.012.08 0 .115-.015.036-.015.036-.053 0-.032-.026-.089l-.47-.991.054-.066-.41.97q-.03.072-.03.119 0 .125.207.125.01 0 .01.012 0 .013-.01.013-.038 0-.11-.004-.08-.004-.14-.004-.054 0-.126.004-.064.004-.106.004-.01 0-.01-.013 0-.012.01-.012.06 0 .1-.021.042-.024.078-.079.038-.057.082-.162l.446-1.053q.004-.007.015-.007.01 0 .013.007l.499 1.05q.072.157.122.212.051.053.12.053zm.397-.155q0 .062.013.09.013.027.047.037.033.009.11.009h.23q.12 0 .192-.074.072-.074.096-.205 0-.007.01-.005.013 0 .013.007-.02.175-.02.29 0 .016-.005.025-.007.006-.026.006h-.977q-.004 0-.004-.013 0-.012.004-.012.08 0 .117-.01.038-.011.05-.041.013-.032.013-.095v-.98q0-.063-.013-.092-.012-.03-.05-.04-.036-.013-.117-.013-.004 0-.004-.013 0-.012.004-.012l.104.002q.089.004.144.004.059 0 .148-.004l.101-.002q.006 0 .006.012 0 .013-.006.013-.078 0-.116.013-.038.01-.05.042-.014.03-.014.093zm1.946-.909q0-.207-.184-.207-.007 0-.007-.013 0-.012.007-.012l.09.002q.077.004.121.004.036 0 .104-.004l.089-.002q.004 0 .004.012 0 .013-.004.013-.17 0-.17.207v.6q0 .244-.135.381-.135.136-.364.136-.156 0-.274-.062-.117-.061-.182-.173-.064-.114-.064-.267v-.676q0-.064-.012-.093-.013-.03-.051-.04-.036-.013-.116-.013-.005 0-.005-.013 0-.012.005-.012l.103.002q.089.004.144.004.057 0 .15-.004l.097-.002q.007 0 .007.012 0 .013-.007.013-.078 0-.116.013-.036.012-.049.044-.012.03-.012.093v.598q0 .25.112.381t.317.131q.19 0 .296-.118.106-.12.106-.332zm.907 1.098q-.061 0-.142-.007l-.076-.004q-.044-.002-.1-.002l-.143.002q-.038.002-.106.002-.004 0-.004-.012 0-.013.004-.013.08 0 .116-.01.039-.011.051-.04.015-.033.015-.096v-.98q0-.063-.013-.092-.012-.03-.05-.04-.036-.013-.117-.013-.004 0-.004-.013 0-.012.004-.012l.106.002q.089.004.142.004.08 0 .158-.006.093-.005.13-.005.22 0 .388.085.17.085.263.23.095.146.095.328 0 .205-.098.364-.095.156-.26.243-.165.085-.36.085zm-.021-.032q.169 0 .3-.07.131-.072.203-.21.074-.139.074-.333 0-.184-.07-.334-.07-.15-.199-.237t-.298-.087q-.09 0-.141.01-.049.011-.072.043-.024.032-.024.095v.952q0 .063.017.099.02.036.068.055.05.017.142.017z" style="font-size:2.1145px;font-family:&quot;Cormorant Garamond&quot;;-inkscape-font-specification:&quot;Cormorant Garamond&quot;;fill:#008bc7;stroke-width:.0443544;stroke-opacity:0;paint-order:markers fill stroke" aria-label="SERVICIO A LA SALUD" transform="translate(-63.472 -24.683)"/></svg>